<mxfile host="app.diagrams.net" modified="2022-02-15T18:47:22.832Z" agent="5.0 (Macintosh; Intel Mac OS X 10_15_7) AppleWebKit/605.1.15 (KHTML, like Gecko) Version/15.2 Safari/605.1.15" etag="EEtxvmuVRCagkaNdngD1" version="16.5.6" type="github">
  <diagram id="C5RBs43oDa-KdzZeNtuy" name="Page-1">
    <mxGraphModel dx="695" dy="631" grid="1" gridSize="10" guides="1" tooltips="1" connect="1" arrows="1" fold="1" page="1" pageScale="1" pageWidth="827" pageHeight="1169" math="0" shadow="0">
      <root>
        <mxCell id="WIyWlLk6GJQsqaUBKTNV-0" />
        <mxCell id="WIyWlLk6GJQsqaUBKTNV-1" parent="WIyWlLk6GJQsqaUBKTNV-0" />
        <mxCell id="WIyWlLk6GJQsqaUBKTNV-2" value="" style="rounded=0;html=1;jettySize=auto;orthogonalLoop=1;fontSize=11;endArrow=block;endFill=0;endSize=8;strokeWidth=1;shadow=0;labelBackgroundColor=none;edgeStyle=orthogonalEdgeStyle;" parent="WIyWlLk6GJQsqaUBKTNV-1" source="WIyWlLk6GJQsqaUBKTNV-3" edge="1">
          <mxGeometry relative="1" as="geometry">
            <mxPoint x="220" y="170" as="targetPoint" />
          </mxGeometry>
        </mxCell>
        <mxCell id="43J6stkhcdzH8d_nGEXj-0" style="edgeStyle=orthogonalEdgeStyle;rounded=0;orthogonalLoop=1;jettySize=auto;html=1;exitX=1;exitY=0.5;exitDx=0;exitDy=0;" edge="1" parent="WIyWlLk6GJQsqaUBKTNV-1" source="WIyWlLk6GJQsqaUBKTNV-3">
          <mxGeometry relative="1" as="geometry">
            <mxPoint x="320" y="100" as="targetPoint" />
          </mxGeometry>
        </mxCell>
        <mxCell id="WIyWlLk6GJQsqaUBKTNV-3" value="Click start" style="rounded=1;whiteSpace=wrap;html=1;fontSize=12;glass=0;strokeWidth=1;shadow=0;" parent="WIyWlLk6GJQsqaUBKTNV-1" vertex="1">
          <mxGeometry x="160" y="80" width="120" height="40" as="geometry" />
        </mxCell>
        <mxCell id="43J6stkhcdzH8d_nGEXj-5" value="" style="edgeStyle=orthogonalEdgeStyle;rounded=0;orthogonalLoop=1;jettySize=auto;html=1;" edge="1" parent="WIyWlLk6GJQsqaUBKTNV-1" source="43J6stkhcdzH8d_nGEXj-1">
          <mxGeometry relative="1" as="geometry">
            <mxPoint x="220" y="290" as="targetPoint" />
          </mxGeometry>
        </mxCell>
        <mxCell id="43J6stkhcdzH8d_nGEXj-1" value="Question is shown" style="ellipse;whiteSpace=wrap;html=1;" vertex="1" parent="WIyWlLk6GJQsqaUBKTNV-1">
          <mxGeometry x="160" y="170" width="120" height="80" as="geometry" />
        </mxCell>
        <mxCell id="43J6stkhcdzH8d_nGEXj-4" value="" style="edgeStyle=orthogonalEdgeStyle;rounded=0;orthogonalLoop=1;jettySize=auto;html=1;" edge="1" parent="WIyWlLk6GJQsqaUBKTNV-1" source="43J6stkhcdzH8d_nGEXj-2" target="43J6stkhcdzH8d_nGEXj-3">
          <mxGeometry relative="1" as="geometry" />
        </mxCell>
        <mxCell id="43J6stkhcdzH8d_nGEXj-2" value="Timer begins countdown" style="ellipse;whiteSpace=wrap;html=1;" vertex="1" parent="WIyWlLk6GJQsqaUBKTNV-1">
          <mxGeometry x="320" y="60" width="120" height="80" as="geometry" />
        </mxCell>
        <mxCell id="43J6stkhcdzH8d_nGEXj-17" value="" style="edgeStyle=orthogonalEdgeStyle;rounded=0;orthogonalLoop=1;jettySize=auto;html=1;" edge="1" parent="WIyWlLk6GJQsqaUBKTNV-1" source="43J6stkhcdzH8d_nGEXj-3" target="43J6stkhcdzH8d_nGEXj-16">
          <mxGeometry relative="1" as="geometry" />
        </mxCell>
        <mxCell id="43J6stkhcdzH8d_nGEXj-3" value="Time check, time display" style="ellipse;whiteSpace=wrap;html=1;" vertex="1" parent="WIyWlLk6GJQsqaUBKTNV-1">
          <mxGeometry x="320" y="220" width="120" height="70" as="geometry" />
        </mxCell>
        <mxCell id="43J6stkhcdzH8d_nGEXj-7" value="Answer is clicked" style="ellipse;whiteSpace=wrap;html=1;" vertex="1" parent="WIyWlLk6GJQsqaUBKTNV-1">
          <mxGeometry x="160" y="290" width="120" height="80" as="geometry" />
        </mxCell>
        <mxCell id="43J6stkhcdzH8d_nGEXj-8" value="Points are awarded" style="ellipse;whiteSpace=wrap;html=1;" vertex="1" parent="WIyWlLk6GJQsqaUBKTNV-1">
          <mxGeometry x="70" y="400" width="120" height="80" as="geometry" />
        </mxCell>
        <mxCell id="43J6stkhcdzH8d_nGEXj-9" value="Time is subtracted" style="ellipse;whiteSpace=wrap;html=1;" vertex="1" parent="WIyWlLk6GJQsqaUBKTNV-1">
          <mxGeometry x="250" y="400" width="120" height="80" as="geometry" />
        </mxCell>
        <mxCell id="43J6stkhcdzH8d_nGEXj-10" value="Tru" style="endArrow=classic;html=1;rounded=0;exitX=0;exitY=1;exitDx=0;exitDy=0;entryX=0.658;entryY=-0.025;entryDx=0;entryDy=0;entryPerimeter=0;" edge="1" parent="WIyWlLk6GJQsqaUBKTNV-1" source="43J6stkhcdzH8d_nGEXj-7" target="43J6stkhcdzH8d_nGEXj-8">
          <mxGeometry width="50" height="50" relative="1" as="geometry">
            <mxPoint x="140" y="410" as="sourcePoint" />
            <mxPoint x="140" y="370" as="targetPoint" />
          </mxGeometry>
        </mxCell>
        <mxCell id="43J6stkhcdzH8d_nGEXj-11" value="False" style="endArrow=classic;html=1;rounded=0;exitX=1;exitY=1;exitDx=0;exitDy=0;" edge="1" parent="WIyWlLk6GJQsqaUBKTNV-1" source="43J6stkhcdzH8d_nGEXj-7" target="43J6stkhcdzH8d_nGEXj-9">
          <mxGeometry width="50" height="50" relative="1" as="geometry">
            <mxPoint x="330" y="350" as="sourcePoint" />
            <mxPoint x="380" y="300" as="targetPoint" />
          </mxGeometry>
        </mxCell>
        <mxCell id="43J6stkhcdzH8d_nGEXj-27" style="edgeStyle=orthogonalEdgeStyle;rounded=0;orthogonalLoop=1;jettySize=auto;html=1;exitX=0;exitY=0.5;exitDx=0;exitDy=0;exitPerimeter=0;" edge="1" parent="WIyWlLk6GJQsqaUBKTNV-1" source="43J6stkhcdzH8d_nGEXj-14" target="43J6stkhcdzH8d_nGEXj-28">
          <mxGeometry relative="1" as="geometry">
            <mxPoint x="230" y="660" as="targetPoint" />
          </mxGeometry>
        </mxCell>
        <mxCell id="43J6stkhcdzH8d_nGEXj-14" value="" style="strokeWidth=2;html=1;shape=mxgraph.flowchart.annotation_2;align=left;labelPosition=right;pointerEvents=1;direction=north;" vertex="1" parent="WIyWlLk6GJQsqaUBKTNV-1">
          <mxGeometry x="130" y="470" width="190" height="100" as="geometry" />
        </mxCell>
        <mxCell id="43J6stkhcdzH8d_nGEXj-15" value="" style="curved=1;endArrow=classic;html=1;rounded=0;exitX=0.033;exitY=0.3;exitDx=0;exitDy=0;exitPerimeter=0;" edge="1" parent="WIyWlLk6GJQsqaUBKTNV-1" source="43J6stkhcdzH8d_nGEXj-24">
          <mxGeometry width="50" height="50" relative="1" as="geometry">
            <mxPoint x="160" y="680" as="sourcePoint" />
            <mxPoint x="150" y="210" as="targetPoint" />
            <Array as="points">
              <mxPoint x="60" y="530" />
              <mxPoint x="-10" y="430" />
            </Array>
          </mxGeometry>
        </mxCell>
        <mxCell id="43J6stkhcdzH8d_nGEXj-19" value="" style="edgeStyle=orthogonalEdgeStyle;rounded=0;orthogonalLoop=1;jettySize=auto;html=1;" edge="1" parent="WIyWlLk6GJQsqaUBKTNV-1" source="43J6stkhcdzH8d_nGEXj-16" target="43J6stkhcdzH8d_nGEXj-18">
          <mxGeometry relative="1" as="geometry">
            <Array as="points">
              <mxPoint x="580" y="490" />
              <mxPoint x="580" y="490" />
            </Array>
          </mxGeometry>
        </mxCell>
        <mxCell id="43J6stkhcdzH8d_nGEXj-16" value="Time is up" style="ellipse;whiteSpace=wrap;html=1;" vertex="1" parent="WIyWlLk6GJQsqaUBKTNV-1">
          <mxGeometry x="520" y="225" width="120" height="60" as="geometry" />
        </mxCell>
        <mxCell id="43J6stkhcdzH8d_nGEXj-18" value="Game ends" style="ellipse;whiteSpace=wrap;html=1;" vertex="1" parent="WIyWlLk6GJQsqaUBKTNV-1">
          <mxGeometry x="530" y="670" width="120" height="60" as="geometry" />
        </mxCell>
        <mxCell id="43J6stkhcdzH8d_nGEXj-26" style="edgeStyle=orthogonalEdgeStyle;rounded=0;orthogonalLoop=1;jettySize=auto;html=1;" edge="1" parent="WIyWlLk6GJQsqaUBKTNV-1" source="43J6stkhcdzH8d_nGEXj-24" target="43J6stkhcdzH8d_nGEXj-18">
          <mxGeometry relative="1" as="geometry" />
        </mxCell>
        <mxCell id="43J6stkhcdzH8d_nGEXj-24" value="&amp;nbsp; &amp;nbsp;Check if last &amp;nbsp; &amp;nbsp; &amp;nbsp;question" style="ellipse;whiteSpace=wrap;html=1;align=left;strokeWidth=2;" vertex="1" parent="WIyWlLk6GJQsqaUBKTNV-1">
          <mxGeometry x="165" y="670" width="120" height="60" as="geometry" />
        </mxCell>
        <mxCell id="43J6stkhcdzH8d_nGEXj-30" value="" style="edgeStyle=orthogonalEdgeStyle;rounded=0;orthogonalLoop=1;jettySize=auto;html=1;" edge="1" parent="WIyWlLk6GJQsqaUBKTNV-1" source="43J6stkhcdzH8d_nGEXj-28" target="43J6stkhcdzH8d_nGEXj-29">
          <mxGeometry relative="1" as="geometry" />
        </mxCell>
        <mxCell id="43J6stkhcdzH8d_nGEXj-28" value="Leader board, prompt" style="ellipse;whiteSpace=wrap;html=1;" vertex="1" parent="WIyWlLk6GJQsqaUBKTNV-1">
          <mxGeometry x="530" y="840" width="120" height="90" as="geometry" />
        </mxCell>
        <mxCell id="43J6stkhcdzH8d_nGEXj-29" value="Save high score to local, click to play" style="ellipse;whiteSpace=wrap;html=1;" vertex="1" parent="WIyWlLk6GJQsqaUBKTNV-1">
          <mxGeometry x="530" y="1025" width="120" height="60" as="geometry" />
        </mxCell>
        <mxCell id="43J6stkhcdzH8d_nGEXj-31" style="edgeStyle=orthogonalEdgeStyle;rounded=0;orthogonalLoop=1;jettySize=auto;html=1;exitX=1;exitY=0;exitDx=0;exitDy=0;exitPerimeter=0;entryX=0.83;entryY=0;entryDx=0;entryDy=0;entryPerimeter=0;" edge="1" parent="WIyWlLk6GJQsqaUBKTNV-1" source="43J6stkhcdzH8d_nGEXj-14" target="43J6stkhcdzH8d_nGEXj-14">
          <mxGeometry relative="1" as="geometry" />
        </mxCell>
        <mxCell id="43J6stkhcdzH8d_nGEXj-32" style="edgeStyle=orthogonalEdgeStyle;rounded=0;orthogonalLoop=1;jettySize=auto;html=1;exitX=1;exitY=1;exitDx=0;exitDy=0;exitPerimeter=0;entryX=0.82;entryY=1;entryDx=0;entryDy=0;entryPerimeter=0;" edge="1" parent="WIyWlLk6GJQsqaUBKTNV-1" source="43J6stkhcdzH8d_nGEXj-14" target="43J6stkhcdzH8d_nGEXj-14">
          <mxGeometry relative="1" as="geometry" />
        </mxCell>
      </root>
    </mxGraphModel>
  </diagram>
</mxfile>
